{
  "accessors": [
    {
      "bufferView": 2,
      "componentType": 5126,
      "count": 65532,
      "max": [
        5.257379055023193,
        20.557010650634766,
        10.204986572265625
      ],
      "min": [
        0.006711006164550781,
        0.2558727264404297,
        5.0536112785339355
      ],
      "type": "VEC3"
    },
    {
      "bufferView": 2,
      "byteOffset": 786384,
      "componentType": 5126,
      "count": 65532,
      "max": [
        0.9999962449073792,
        0.9998089075088501,
        0.9999538660049438
      ],
      "min": [
        -0.9999983310699463,
        -0.9999985098838806,
        -0.9999807476997375
      ],
      "type": "VEC3"
    },
    {
      "bufferView": 1,
      "componentType": 5126,
      "count": 65532,
      "max": [
        0.9979540109634399,
        0.9961659908294678
      ],
      "min": [
        0.004091999959200621,
        0.004089999943971634
      ],
      "type": "VEC2"
    },
    {
      "bufferView": 0,
      "componentType": 5125,
      "count": 343890,
      "type": "SCALAR"
    },
    {
      "bufferView": 2,
      "byteOffset": 1572768,
      "componentType": 5126,
      "count": 65532,
      "max": [
        5.757420063018799,
        20.588993072509766,
        9.605348587036133
      ],
      "min": [
        0.0,
        5.047033309936523,
        0.0
      ],
      "type": "VEC3"
    },
    {
      "bufferView": 2,
      "byteOffset": 2359152,
      "componentType": 5126,
      "count": 65532,
      "max": [
        0.9999767541885376,
        0.9999436140060425,
        0.9999811053276062
      ],
      "min": [
        -0.9999906420707703,
        -0.9999985098838806,
        -0.9999916553497314
      ],
      "type": "VEC3"
    },
    {
      "bufferView": 1,
      "byteOffset": 524256,
      "componentType": 5126,
      "count": 65532,
      "max": [
        0.9978259801864624,
        0.9979550242424011
      ],
      "min": [
        0.004091999959200621,
        0.004089999943971634
      ],
      "type": "VEC2"
    },
    {
      "bufferView": 0,
      "byteOffset": 1375560,
      "componentType": 5125,
      "count": 347313,
      "type": "SCALAR"
    },
    {
      "bufferView": 2,
      "byteOffset": 3145536,
      "componentType": 5126,
      "count": 65532,
      "max": [
        5.295405387878418,
        20.587125778198242,
        10.171340942382813
      ],
      "min": [
        0.17392802238464355,
        0.0,
        0.2416973114013672
      ],
      "type": "VEC3"
    },
    {
      "bufferView": 2,
      "byteOffset": 3931920,
      "componentType": 5126,
      "count": 65532,
      "max": [
        0.9999797344207764,
        0.9999452233314514,
        0.9997946619987488
      ],
      "min": [
        -0.9999927878379822,
        -0.999997615814209,
        -0.9999774694442749
      ],
      "type": "VEC3"
    },
    {
      "bufferView": 1,
      "byteOffset": 1048512,
      "componentType": 5126,
      "count": 65532,
      "max": [
        0.9979540109634399,
        0.9978269934654236
      ],
      "min": [
        0.004091999959200621,
        0.004089999943971634
      ],
      "type": "VEC2"
    },
    {
      "bufferView": 0,
      "byteOffset": 2764812,
      "componentType": 5125,
      "count": 334791,
      "type": "SCALAR"
    },
    {
      "bufferView": 2,
      "byteOffset": 4718304,
      "componentType": 5126,
      "count": 17543,
      "max": [
        5.173868179321289,
        19.7418155670166,
        9.942437171936035
      ],
      "min": [
        2.4894721508026123,
        15.319869041442871,
        5.099930286407471
      ],
      "type": "VEC3"
    },
    {
      "bufferView": 2,
      "byteOffset": 4928820,
      "componentType": 5126,
      "count": 17543,
      "max": [
        0.9999096393585205,
        0.9913217425346375,
        0.9998443722724915
      ],
      "min": [
        -0.9994313716888428,
        -0.9999799728393555,
        -0.9997626543045044
      ],
      "type": "VEC3"
    },
    {
      "bufferView": 1,
      "byteOffset": 1572768,
      "componentType": 5126,
      "count": 17543,
      "max": [
        0.9969310164451599,
        0.9979550242424011
      ],
      "min": [
        0.10447599738836288,
        0.004089999943971634
      ],
      "type": "VEC2"
    },
    {
      "bufferView": 0,
      "byteOffset": 4103976,
      "componentType": 5125,
      "count": 84945,
      "type": "SCALAR"
    }
  ],
  "asset": {
    "extras": {
      "author": "Geoffrey Marchal (https://sketchfab.com/geoffreymarchal)",
      "license": "CC-BY-NC-4.0 (http://creativecommons.org/licenses/by-nc/4.0/)",
      "source": "https://sketchfab.com/3d-models/david-with-goliath-s-head-521dff49d31b463d9133d9de164d84d5",
      "title": "David with Goliath´s head"
    },
    "generator": "Sketchfab-12.78.0",
    "version": "2.0"
  },
  "bufferViews": [
    {
      "buffer": 0,
      "byteLength": 4443756,
      "name": "floatBufferViews",
      "target": 34963
    },
    {
      "buffer": 0,
      "byteLength": 1713112,
      "byteOffset": 4443756,
      "byteStride": 8,
      "name": "floatBufferViews",
      "target": 34962
    },
    {
      "buffer": 0,
      "byteLength": 5139336,
      "byteOffset": 6156868,
      "byteStride": 12,
      "name": "floatBufferViews",
      "target": 34962
    }
  ],
  "buffers": [
    {
      "byteLength": 11296204,
      "uri": "scene.bin"
    }
  ],
  "images": [
    {
      "uri": "textures/Material_0_baseColor.jpeg"
    },
    {
      "uri": "textures/Material_0_metallicRoughness.png"
    }
  ],
  "materials": [
    {
      "doubleSided": true,
      "name": "Material_0",
      "pbrMetallicRoughness": {
        "baseColorTexture": {
          "index": 0
        },
        "metallicFactor": 0.0,
        "metallicRoughnessTexture": {
          "index": 1
        }
      }
    }
  ],
  "meshes": [
    {
      "name": "Object_0",
      "primitives": [
        {
          "attributes": {
            "NORMAL": 1,
            "POSITION": 0,
            "TEXCOORD_0": 2
          },
          "indices": 3,
          "material": 0,
          "mode": 4
        }
      ]
    },
    {
      "name": "Object_1",
      "primitives": [
        {
          "attributes": {
            "NORMAL": 5,
            "POSITION": 4,
            "TEXCOORD_0": 6
          },
          "indices": 7,
          "material": 0,
          "mode": 4
        }
      ]
    },
    {
      "name": "Object_2",
      "primitives": [
        {
          "attributes": {
            "NORMAL": 9,
            "POSITION": 8,
            "TEXCOORD_0": 10
          },
          "indices": 11,
          "material": 0,
          "mode": 4
        }
      ]
    },
    {
      "name": "Object_3",
      "primitives": [
        {
          "attributes": {
            "NORMAL": 13,
            "POSITION": 12,
            "TEXCOORD_0": 14
          },
          "indices": 15,
          "material": 0,
          "mode": 4
        }
      ]
    }
  ],
  "nodes": [
    {
      "children": [
        1
      ],
      "matrix": [
        0.22404229640960693,
        -0.020831106230616785,
        0.9743567705154419,
        0.0,
        -0.023969171568751335,
        -0.9995868802070618,
        -0.01585906930267833,
        0.0,
        0.9742846488952637,
        -0.019801422953605603,
        -0.2244490385055542,
        0.0,
        -0.28437328338623047,
        -15.47954368591309,
        15.133565902709957,
        1.0
      ],
      "name": "Sketchfab_model"
    },
    {
      "children": [
        2,
        3,
        4,
        5
      ],
      "matrix": [
        1.0,
        0.0,
        0.0,
        0.0,
        0.0,
        1.0,
        0.0,
        0.0,
        0.0,
        0.0,
        1.0,
        0.0,
        -2.9219610691070557,
        -25.656618118286133,
        -5.222996234893799,
        1.0
      ],
      "name": "davidkids.obj.cleaner.gles"
    },
    {
      "mesh": 0,
      "name": "Object_2"
    },
    {
      "mesh": 1,
      "name": "Object_3"
    },
    {
      "mesh": 2,
      "name": "Object_4"
    },
    {
      "mesh": 3,
      "name": "Object_5"
    }
  ],
  "samplers": [
    {
      "magFilter": 9729,
      "minFilter": 9987,
      "wrapS": 10497,
      "wrapT": 10497
    },
    {
      "magFilter": 9728,
      "minFilter": 9728,
      "wrapS": 10497,
      "wrapT": 10497
    }
  ],
  "scene": 0,
  "scenes": [
    {
      "name": "Sketchfab_Scene",
      "nodes": [
        0
      ]
    }
  ],
  "textures": [
    {
      "sampler": 0,
      "source": 0
    },
    {
      "sampler": 1,
      "source": 1
    }
  ]
}
